<?xml version="1.0" encoding="UTF-8"?>
<svg width="166px" height="162px" viewBox="0 0 166 162" version="1.1" xmlns="http://www.w3.org/2000/svg" xmlns:xlink="http://www.w3.org/1999/xlink">
    <!-- Generator: Sketch 51.3 (57544) - http://www.bohemiancoding.com/sketch -->
    <title>k8s</title>
    <desc>Created with Sketch.</desc>
    <defs>
        <polygon id="path-1" points="82.5 0 16.3419268 31.8493573 0 103.416691 45.7854712 160.811667 119.218375 160.811667 165 103.416691 148.661919 31.8493573"></polygon>
    </defs>
    <g id="Page-1" stroke="none" stroke-width="1" fill="none" fill-rule="evenodd">
        <g id="k8s" transform="translate(0.123257, 0.500000)">
            <mask id="mask-2" fill="white">
                <use xlink:href="#path-1"></use>
            </mask>
            <g id="Shape" style="mix-blend-mode: multiply;" fill-rule="nonzero">
                <use fill="#326DE6" xlink:href="#path-1"></use>
                <use fill="#FFFFFF" xlink:href="#path-1"></use>
            </g>
            <g id="Group" mask="url(#mask-2)">
                <g transform="translate(-44.385010, -100.998596)">
                    <polygon id="Shape" fill="#326DE6" fill-rule="nonzero" style="mix-blend-mode: multiply;" points="246.88501 0.998596191 180.726937 32.8479535 164.38501 104.415288 210.170481 161.810263 283.603385 161.810263 329.38501 104.415288 313.046929 32.8479535"></polygon>
                    <path d="M193.090678,262.955566 L192.976909,262.955566 L59.9619043,262.955566 C55.9468042,262.955566 52.2161267,260.817585 50.1066585,257.29016 C47.9971904,253.762735 47.8028349,249.359569 49.5994381,245.651125 L116.1022,108.365308 C118.069457,104.319288 122.079817,101.760559 126.469407,101.760559 C130.858997,101.760559 134.869356,104.319288 136.831873,108.365308 L202.685203,244.300821 C203.941403,246.208859 204.676162,248.513183 204.676162,250.998525 C204.676162,257.608166 199.485448,262.955566 193.090678,262.955566" id="Fill-19" fill="#3FB1E5" fill-rule="evenodd" style="mix-blend-mode: multiply;" transform="translate(126.526313, 182.358063) scale(1, -1) rotate(180.000000) translate(-126.526313, -182.358063) "></path>
                    <path d="M285.640263,289.804351 L165.598934,289.804351 C159.823602,289.804351 155.143445,284.981877 155.143445,279.025481 L155.143445,155.216285 C155.143445,149.255478 159.823602,144.433003 165.598934,144.433003 L285.640263,144.433003 C291.415594,144.433003 296.100029,149.255478 296.100029,155.216285 L296.100029,279.025481 C296.100029,284.981877 291.415594,289.804351 285.640263,289.804351" id="Fill-23" fill="#38BB4C" fill-rule="evenodd" style="mix-blend-mode: multiply;" transform="translate(225.621737, 217.118677) rotate(-45.000000) translate(-225.621737, -217.118677) "></path>
                    <path d="M69.1716238,225.710391 C31.1413451,225.710391 0.195425241,193.797625 0.195425241,154.569538 C0.195425241,115.341451 31.1413451,83.4330033 69.1716238,83.4330033 C107.206089,83.4330033 138.152009,115.341451 138.152009,154.569538 C138.152009,193.797625 107.206089,225.710391 69.1716238,225.710391" id="Fill-29" fill="#FF2F57" fill-rule="evenodd" style="mix-blend-mode: multiply;"></path>
                    <polygon id="Path-2" fill="#2B5CCB" fill-rule="nonzero" points="135.100311 104.181152 167.807983 172.237183 211.380432 129.20462 211.380432 71.445282"></polygon>
                </g>
            </g>
            <path d="M81.5000252,15.249548 L27.2888066,41.3475341 L13.8981515,99.9901591 L51.4153108,147.020284 L111.587891,147.020284 L149.101899,99.9901591 L135.714395,41.3475341 L81.5000252,15.249548 Z" id="Shape" stroke="#FFFFFF" stroke-width="4" fill-rule="nonzero" mask="url(#mask-2)"></path>
        </g>
    </g>
</svg>