<?xml version="1.0" encoding="UTF-8"?>
<svg width="168px" height="32px" viewBox="0 0 168 32" version="1.1" xmlns="http://www.w3.org/2000/svg" xmlns:xlink="http://www.w3.org/1999/xlink">
    <!-- Generator: Sketch 51.3 (57544) - http://www.bohemiancoding.com/sketch -->
    <title>Deis Labs</title>
    <desc>Created with Sketch.</desc>
    <defs></defs>
    <g id="Page-1" stroke="none" stroke-width="1" fill="none" fill-rule="evenodd">
        <path d="M0.16,1.3 L8.764,1.3 C16.9,1.3 23.74,7.492 23.74,16.132 C23.74,24.808 16.936,31 8.764,31 L0.16,31 L0.16,1.3 Z M6.928,24.952 L7.972,24.952 C12.976,24.952 16.396,21.136 16.432,16.168 C16.432,11.2 13.012,7.348 7.972,7.348 L6.928,7.348 L6.928,24.952 Z M45.662,22.648 L32.27,22.648 C32.27,25.492 34.646,26.464 36.266,26.464 C38.318,26.464 39.218,26.068 40.766,24.412 L45.374,26.716 C43.286,30.208 39.902,31.54 35.798,31.54 C30.218,31.54 25.646,27.148 25.646,21.784 C25.646,16.384 30.218,11.992 35.798,11.992 C41.414,11.992 45.698,15.304 45.698,21.784 C45.698,22.036 45.698,22.432 45.662,22.648 Z M32.45,19.12 L39.47,19.12 C39.182,17.176 37.85,16.132 35.978,16.132 C33.782,16.132 32.558,17.428 32.45,19.12 Z M52.14,1.12 C54.228,1.12 55.92,2.812 55.92,4.9 C55.92,6.988 54.228,8.68 52.14,8.68 C50.052,8.68 48.36,6.988 48.36,4.9 C48.36,2.812 50.052,1.12 52.14,1.12 Z M48.864,12.532 L55.236,12.532 L55.236,31 L48.864,31 L48.864,12.532 Z M68.014,11.992 C71.578,11.992 74.206,13.432 74.206,13.432 L72.118,17.608 C72.118,17.608 69.958,16.456 68.014,16.456 C66.61,16.456 66.034,16.708 66.034,17.572 C66.034,18.544 67.33,18.832 68.914,19.336 C71.362,20.092 74.53,21.46 74.53,25.24 C74.53,30.676 69.562,31.54 65.782,31.54 C61.318,31.54 58.654,29.056 58.654,29.056 L61.246,24.7 C61.246,24.7 63.766,26.824 65.818,26.824 C66.718,26.824 67.798,26.716 67.798,25.492 C67.798,24.16 65.782,24.052 63.694,22.972 C61.822,22 59.95,20.704 59.95,17.932 C59.95,14.152 63.154,11.992 68.014,11.992 Z M89.88,1.3 L89.88,25.06 L100.104,25.06 L100.104,31 L83.112,31 L83.112,1.3 L89.88,1.3 Z M102.37,21.784 C102.37,16.384 106.15,11.992 111.55,11.992 C114.034,11.992 116.086,12.82 117.598,14.296 L117.598,12.532 L123.97,12.532 L123.97,31 L117.67,31 L117.67,28.912 L117.598,28.912 C116.23,30.424 114.07,31.54 111.55,31.54 C106.15,31.54 102.37,27.184 102.37,21.784 Z M109.138,21.784 C109.138,24.304 110.866,26.104 113.458,26.104 C115.942,26.104 117.742,24.304 117.742,21.784 C117.742,19.228 115.834,17.428 113.458,17.428 C111.046,17.428 109.138,19.228 109.138,21.784 Z M150.14,21.784 C150.14,27.184 146.36,31.54 140.96,31.54 C138.44,31.54 136.28,30.424 134.912,28.912 L134.84,28.912 L134.84,31 L128.54,31 L128.54,0.04 L134.912,0.04 L134.912,14.296 C136.424,12.82 138.476,11.992 140.96,11.992 C146.36,11.992 150.14,16.384 150.14,21.784 Z M143.372,21.784 C143.372,19.228 141.464,17.428 139.052,17.428 C136.676,17.428 134.768,19.228 134.768,21.784 C134.768,24.304 136.568,26.104 139.052,26.104 C141.644,26.104 143.372,24.304 143.372,21.784 Z M161.226,11.992 C164.79,11.992 167.418,13.432 167.418,13.432 L165.33,17.608 C165.33,17.608 163.17,16.456 161.226,16.456 C159.822,16.456 159.246,16.708 159.246,17.572 C159.246,18.544 160.542,18.832 162.126,19.336 C164.574,20.092 167.742,21.46 167.742,25.24 C167.742,30.676 162.774,31.54 158.994,31.54 C154.53,31.54 151.866,29.056 151.866,29.056 L154.458,24.7 C154.458,24.7 156.978,26.824 159.03,26.824 C159.93,26.824 161.01,26.716 161.01,25.492 C161.01,24.16 158.994,24.052 156.906,22.972 C155.034,22 153.162,20.704 153.162,17.932 C153.162,14.152 156.366,11.992 161.226,11.992 Z" id="Deis-Labs" fill="#4A4A4A"></path>
    </g>
</svg>