<?xml version="1.0" encoding="UTF-8"?>
<svg width="793px" height="143px" viewBox="0 0 793 143" version="1.1" xmlns="http://www.w3.org/2000/svg" xmlns:xlink="http://www.w3.org/1999/xlink">
    <!-- Generator: Sketch 51.3 (57544) - http://www.bohemiancoding.com/sketch -->
    <title>Building open source</title>
    <desc>Created with Sketch.</desc>
    <defs></defs>
    <g id="Page-1" stroke="none" stroke-width="1" fill="none" fill-rule="evenodd">
        <path d="M2.18,3.275 L15.748,3.275 C23.274,3.275 29.21,6.084 29.21,14.405 C29.21,18.433 27.461,21.878 23.751,23.786 C29.21,24.74 33.079,27.761 33.079,34.81 C33.079,42.018 27.832,47 18.769,47 L2.18,47 L2.18,3.275 Z M12.144,20.394 L12.939,20.394 C17.232,20.394 19.564,19.069 19.564,15.412 C19.564,12.285 17.285,10.96 12.939,10.96 L12.144,10.96 L12.144,20.394 Z M12.144,39.315 L15.271,39.315 C19.988,39.315 22.585,37.884 22.585,34.439 C22.585,30.411 19.988,28.98 15.271,28.98 L12.144,28.98 L12.144,39.315 Z M45.5608841,19.811 L45.5608841,32.743 C45.5608841,38.096 46.9918841,40.163 50.9138841,40.163 C54.8358841,40.163 56.2668841,38.096 56.2668841,32.743 L56.2668841,19.811 L65.6478841,19.811 L65.6478841,35.022 C65.6478841,44.138 61.0898841,47.795 50.9138841,47.795 C40.7378841,47.795 36.1798841,44.138 36.1798841,35.022 L36.1798841,19.811 L45.5608841,19.811 Z M75.5327682,3.01 C78.6067682,3.01 81.0977682,5.501 81.0977682,8.575 C81.0977682,11.649 78.6067682,14.14 75.5327682,14.14 C72.4587682,14.14 69.9677682,11.649 69.9677682,8.575 C69.9677682,5.501 72.4587682,3.01 75.5327682,3.01 Z M70.7097682,19.811 L80.0907682,19.811 L80.0907682,47 L70.7097682,47 L70.7097682,19.811 Z M85.9476523,47 L85.9476523,1.42 L95.3286523,1.42 L95.3286523,47 L85.9476523,47 Z M98.9595364,33.432 C98.9595364,25.482 104.524536,19.016 112.474536,19.016 C116.131536,19.016 119.152536,20.235 121.378536,22.408 L121.378536,1.42 L130.759536,1.42 L130.759536,47 L121.484536,47 L121.484536,43.926 L121.378536,43.926 C119.364536,46.152 116.184536,47.795 112.474536,47.795 C104.524536,47.795 98.9595364,41.382 98.9595364,33.432 Z M108.923536,33.432 C108.923536,37.142 111.467536,39.792 115.283536,39.792 C118.940536,39.792 121.590536,37.142 121.590536,33.432 C121.590536,29.669 118.781536,27.019 115.283536,27.019 C111.732536,27.019 108.923536,29.669 108.923536,33.432 Z M141.17442,3.01 C144.248421,3.01 146.73942,5.501 146.73942,8.575 C146.73942,11.649 144.248421,14.14 141.17442,14.14 C138.10042,14.14 135.60942,11.649 135.60942,8.575 C135.60942,5.501 138.10042,3.01 141.17442,3.01 Z M136.351421,19.811 L145.73242,19.811 L145.73242,47 L136.351421,47 L136.351421,19.811 Z M151.589305,47 L151.589305,19.811 L160.970305,19.811 L160.970305,22.673 L161.076305,22.673 C163.196305,20.553 165.899305,19.016 168.867305,19.016 C173.849305,19.016 180.792305,21.507 180.792305,29.086 L180.792305,47 L171.411305,47 L171.411305,31.63 C171.411305,28.927 169.556305,26.33 166.535305,26.33 C163.726305,26.33 160.970305,28.927 160.970305,31.63 L160.970305,47 L151.589305,47 Z M184.635189,53.678 L192.320189,49.915 C193.327189,51.558 195.606189,53.413 199.687189,53.413 C202.284189,53.413 206.312189,51.876 206.312189,47.053 L206.312189,45.039 C204.298189,47.265 201.118189,47.795 197.408189,47.795 C189.458189,47.795 183.893189,41.382 183.893189,33.432 C183.893189,25.482 189.458189,19.016 197.408189,19.016 C201.012189,19.016 203.927189,20.182 206.153189,22.249 L206.312189,22.249 L206.312189,19.811 L215.693189,19.811 L215.693189,47.742 C215.693189,56.858 208.962189,61.575 199.687189,61.575 C194.016189,61.575 187.497189,60.303 184.635189,53.678 Z M193.857189,33.432 C193.857189,37.142 196.401189,39.792 200.217189,39.792 C203.874189,39.792 206.524189,37.142 206.524189,33.432 C206.524189,29.669 203.715189,27.019 200.217189,27.019 C196.666189,27.019 193.857189,29.669 193.857189,33.432 Z M233.024957,33.432 C233.024957,24.952 240.232957,19.016 249.401957,19.016 C258.411957,19.016 265.619957,24.952 265.619957,33.432 C265.619957,41.806 258.782957,47.795 249.401957,47.795 C239.596957,47.795 233.024957,41.806 233.024957,33.432 Z M242.988957,33.432 C242.988957,37.142 245.532957,39.792 249.348957,39.792 C253.005957,39.792 255.655957,37.142 255.655957,33.432 C255.655957,29.669 252.846957,27.019 249.348957,27.019 C245.797957,27.019 242.988957,29.669 242.988957,33.432 Z M300.944841,33.379 C300.944841,41.329 295.379841,47.795 287.429841,47.795 C283.772841,47.795 280.751841,46.576 278.525841,44.403 L278.525841,60.78 L269.144841,60.78 L269.144841,19.811 L278.419841,19.811 L278.419841,22.885 L278.525841,22.885 C280.539841,20.659 283.719841,19.016 287.429841,19.016 C295.379841,19.016 300.944841,25.429 300.944841,33.379 Z M290.980841,33.379 C290.980841,29.669 288.436841,27.019 284.620841,27.019 C280.963841,27.019 278.313841,29.669 278.313841,33.379 C278.313841,37.142 281.122841,39.792 284.620841,39.792 C288.171841,39.792 290.980841,37.142 290.980841,33.379 Z M332.082725,34.704 L312.366725,34.704 C312.366725,38.891 315.864725,40.322 318.249725,40.322 C321.270725,40.322 322.595725,39.739 324.874725,37.301 L331.658725,40.693 C328.584725,45.834 323.602725,47.795 317.560725,47.795 C309.345725,47.795 302.614725,41.329 302.614725,33.432 C302.614725,25.482 309.345725,19.016 317.560725,19.016 C325.828725,19.016 332.135725,23.892 332.135725,33.432 C332.135725,33.803 332.135725,34.386 332.082725,34.704 Z M312.631725,29.51 L322.966725,29.51 C322.542725,26.648 320.581725,25.111 317.825725,25.111 C314.592725,25.111 312.790725,27.019 312.631725,29.51 Z M335.660609,47 L335.660609,19.811 L345.041609,19.811 L345.041609,22.673 L345.147609,22.673 C347.267609,20.553 349.970609,19.016 352.938609,19.016 C357.920609,19.016 364.863609,21.507 364.863609,29.086 L364.863609,47 L355.482609,47 L355.482609,31.63 C355.482609,28.927 353.627609,26.33 350.606609,26.33 C347.797609,26.33 345.041609,28.927 345.041609,31.63 L345.041609,47 L335.660609,47 Z M395.445377,19.016 C400.692377,19.016 404.561377,21.136 404.561377,21.136 L401.487377,27.284 C401.487377,27.284 398.307377,25.588 395.445377,25.588 C393.378377,25.588 392.530377,25.959 392.530377,27.231 C392.530377,28.662 394.438377,29.086 396.770377,29.828 C400.374377,30.941 405.038377,32.955 405.038377,38.52 C405.038377,46.523 397.724377,47.795 392.159377,47.795 C385.587377,47.795 381.665377,44.138 381.665377,44.138 L385.481377,37.725 C385.481377,37.725 389.191377,40.852 392.212377,40.852 C393.537377,40.852 395.127377,40.693 395.127377,38.891 C395.127377,36.93 392.159377,36.771 389.085377,35.181 C386.329377,33.75 383.573377,31.842 383.573377,27.761 C383.573377,22.196 388.290377,19.016 395.445377,19.016 Z M406.973262,33.432 C406.973262,24.952 414.181262,19.016 423.350262,19.016 C432.360262,19.016 439.568262,24.952 439.568262,33.432 C439.568262,41.806 432.731262,47.795 423.350262,47.795 C413.545262,47.795 406.973262,41.806 406.973262,33.432 Z M416.937262,33.432 C416.937262,37.142 419.481262,39.792 423.297262,39.792 C426.954262,39.792 429.604262,37.142 429.604262,33.432 C429.604262,29.669 426.795262,27.019 423.297262,27.019 C419.746262,27.019 416.937262,29.669 416.937262,33.432 Z M452.050146,19.811 L452.050146,32.743 C452.050146,38.096 453.481146,40.163 457.403146,40.163 C461.325146,40.163 462.756146,38.096 462.756146,32.743 L462.756146,19.811 L472.137146,19.811 L472.137146,35.022 C472.137146,44.138 467.579146,47.795 457.403146,47.795 C447.227146,47.795 442.669146,44.138 442.669146,35.022 L442.669146,19.811 L452.050146,19.811 Z M477.19903,47 L477.19903,19.811 L486.58003,19.811 L486.58003,23.733 L486.68603,23.733 C486.68603,23.733 489.65403,19.016 495.00703,19.016 C498.50503,19.016 500.94303,20.712 500.94303,20.712 L497.02103,28.662 C497.02103,28.662 495.27203,27.178 492.14503,27.178 C487.26903,27.178 486.58003,32.001 486.58003,32.69 L486.58003,47 L477.19903,47 Z M516.975914,26.701 C513.424914,26.701 510.509914,29.669 510.509914,33.379 C510.509914,37.142 513.424914,40.11 516.975914,40.11 C519.784914,40.11 521.533914,38.838 521.533914,38.838 L524.713914,45.357 C524.713914,45.357 521.639914,47.795 515.597914,47.795 C507.753914,47.795 500.545914,41.435 500.545914,33.485 C500.545914,25.482 507.700914,19.016 515.597914,19.016 C521.639914,19.016 524.713914,21.56 524.713914,21.56 L521.533914,27.973 C521.533914,27.973 519.784914,26.701 516.975914,26.701 Z M555.268798,34.704 L535.552798,34.704 C535.552798,38.891 539.050798,40.322 541.435798,40.322 C544.456798,40.322 545.781798,39.739 548.060798,37.301 L554.844798,40.693 C551.770798,45.834 546.788798,47.795 540.746798,47.795 C532.531798,47.795 525.800798,41.329 525.800798,33.432 C525.800798,25.482 532.531798,19.016 540.746798,19.016 C549.014798,19.016 555.321798,23.892 555.321798,33.432 C555.321798,33.803 555.321798,34.386 555.268798,34.704 Z M535.817798,29.51 L546.152798,29.51 C545.728798,26.648 543.767798,25.111 541.011798,25.111 C537.778798,25.111 535.976798,27.019 535.817798,29.51 Z M574.243566,19.811 L574.243566,9.688 L583.624566,9.688 L583.624566,19.811 L589.348566,19.811 L589.348566,26.966 L583.624566,26.966 L583.624566,35.605 C583.624566,38.149 584.260566,39.368 585.744566,39.368 C586.963566,39.368 588.076566,38.52 588.076566,38.52 L590.408566,46.099 C590.408566,46.099 587.387566,47.795 583.518566,47.795 C576.045566,47.795 574.243566,42.23 574.243566,37.407 L574.243566,26.966 L570.321566,26.966 L570.321566,19.811 L574.243566,19.811 Z M590.85945,33.432 C590.85945,24.952 598.06745,19.016 607.23645,19.016 C616.24645,19.016 623.45445,24.952 623.45445,33.432 C623.45445,41.806 616.61745,47.795 607.23645,47.795 C597.43145,47.795 590.85945,41.806 590.85945,33.432 Z M600.82345,33.432 C600.82345,37.142 603.36745,39.792 607.18345,39.792 C610.84045,39.792 613.49045,37.142 613.49045,33.432 C613.49045,29.669 610.68145,27.019 607.18345,27.019 C603.63245,27.019 600.82345,29.669 600.82345,33.432 Z M625.124334,33.432 C625.124334,24.952 632.332334,19.016 641.501334,19.016 C650.511334,19.016 657.719334,24.952 657.719334,33.432 C657.719334,41.806 650.882334,47.795 641.501334,47.795 C631.696334,47.795 625.124334,41.806 625.124334,33.432 Z M635.088334,33.432 C635.088334,37.142 637.632334,39.792 641.448334,39.792 C645.105334,39.792 647.755334,37.142 647.755334,33.432 C647.755334,29.669 644.946334,27.019 641.448334,27.019 C637.897334,27.019 635.088334,29.669 635.088334,33.432 Z M661.244218,47 L661.244218,1.42 L670.625218,1.42 L670.625218,47 L661.244218,47 Z M688.036103,19.016 C693.283103,19.016 697.152103,21.136 697.152103,21.136 L694.078103,27.284 C694.078103,27.284 690.898103,25.588 688.036103,25.588 C685.969103,25.588 685.121103,25.959 685.121103,27.231 C685.121103,28.662 687.029103,29.086 689.361103,29.828 C692.965103,30.941 697.629103,32.955 697.629103,38.52 C697.629103,46.523 690.315103,47.795 684.750103,47.795 C678.178103,47.795 674.256103,44.138 674.256103,44.138 L678.072103,37.725 C678.072103,37.725 681.782103,40.852 684.803103,40.852 C686.128103,40.852 687.718103,40.693 687.718103,38.891 C687.718103,36.93 684.750103,36.771 681.676103,35.181 C678.920103,33.75 676.164103,31.842 676.164103,27.761 C676.164103,22.196 680.881103,19.016 688.036103,19.016 Z M716.815871,19.811 L716.815871,14.034 C716.868871,6.084 720.684871,0.625 727.468871,0.625 C732.238871,0.625 735.206871,3.063 735.206871,3.063 L731.920871,9.688 C731.920871,9.688 730.648871,8.946 729.111871,8.946 C726.726871,8.946 726.196871,10.536 726.196871,14.299 L726.196871,19.811 L732.450871,19.811 L732.450871,26.966 L726.196871,26.966 L726.196871,47 L716.815871,47 L716.815871,26.966 L712.893871,26.966 L712.893871,19.811 L716.815871,19.811 Z M732.371755,33.432 C732.371755,24.952 739.579755,19.016 748.748755,19.016 C757.758755,19.016 764.966755,24.952 764.966755,33.432 C764.966755,41.806 758.129755,47.795 748.748755,47.795 C738.943755,47.795 732.371755,41.806 732.371755,33.432 Z M742.335755,33.432 C742.335755,37.142 744.879755,39.792 748.695755,39.792 C752.352755,39.792 755.002755,37.142 755.002755,33.432 C755.002755,29.669 752.193755,27.019 748.695755,27.019 C745.144755,27.019 742.335755,29.669 742.335755,33.432 Z M768.491639,47 L768.491639,19.811 L777.872639,19.811 L777.872639,23.733 L777.978639,23.733 C777.978639,23.733 780.946639,19.016 786.299639,19.016 C789.797639,19.016 792.235639,20.712 792.235639,20.712 L788.313639,28.662 C788.313639,28.662 786.564639,27.178 783.437639,27.178 C778.561639,27.178 777.872639,32.001 777.872639,32.69 L777.872639,47 L768.491639,47 Z M16.649,108.701 C13.098,108.701 10.183,111.669 10.183,115.379 C10.183,119.142 13.098,122.11 16.649,122.11 C19.458,122.11 21.207,120.838 21.207,120.838 L24.387,127.357 C24.387,127.357 21.313,129.795 15.271,129.795 C7.427,129.795 0.219,123.435 0.219,115.485 C0.219,107.482 7.374,101.016 15.271,101.016 C21.313,101.016 24.387,103.56 24.387,103.56 L21.207,109.973 C21.207,109.973 19.458,108.701 16.649,108.701 Z M27.3288841,129 L27.3288841,83.42 L36.7098841,83.42 L36.7098841,129 L27.3288841,129 Z M40.3407682,115.432 C40.3407682,106.952 47.5487682,101.016 56.7177682,101.016 C65.7277682,101.016 72.9357682,106.952 72.9357682,115.432 C72.9357682,123.806 66.0987682,129.795 56.7177682,129.795 C46.9127682,129.795 40.3407682,123.806 40.3407682,115.432 Z M50.3047682,115.432 C50.3047682,119.142 52.8487682,121.792 56.6647682,121.792 C60.3217682,121.792 62.9717682,119.142 62.9717682,115.432 C62.9717682,111.669 60.1627682,109.019 56.6647682,109.019 C53.1137682,109.019 50.3047682,111.669 50.3047682,115.432 Z M85.4176523,101.811 L85.4176523,114.743 C85.4176523,120.096 86.8486523,122.163 90.7706523,122.163 C94.6926523,122.163 96.1236523,120.096 96.1236523,114.743 L96.1236523,101.811 L105.504652,101.811 L105.504652,117.022 C105.504652,126.138 100.946652,129.795 90.7706523,129.795 C80.5946523,129.795 76.0366523,126.138 76.0366523,117.022 L76.0366523,101.811 L85.4176523,101.811 Z M108.605536,115.432 C108.605536,107.482 114.170536,101.016 122.120536,101.016 C125.777536,101.016 128.798536,102.235 131.024536,104.408 L131.024536,83.42 L140.405536,83.42 L140.405536,129 L131.130536,129 L131.130536,125.926 L131.024536,125.926 C129.010536,128.152 125.830536,129.795 122.120536,129.795 C114.170536,129.795 108.605536,123.382 108.605536,115.432 Z M118.569536,115.432 C118.569536,119.142 121.113536,121.792 124.929536,121.792 C128.586536,121.792 131.236536,119.142 131.236536,115.432 C131.236536,111.669 128.427536,109.019 124.929536,109.019 C121.378536,109.019 118.569536,111.669 118.569536,115.432 Z M145.997421,109.602 L163.063421,109.602 L163.063421,117.711 L145.997421,117.711 L145.997421,109.602 Z M168.655305,129 L168.655305,101.811 L178.036305,101.811 L178.036305,104.673 L178.142305,104.673 C180.262305,102.553 182.965305,101.016 185.933305,101.016 C190.915305,101.016 197.858305,103.507 197.858305,111.086 L197.858305,129 L188.477305,129 L188.477305,113.63 C188.477305,110.927 186.622305,108.33 183.601305,108.33 C180.792305,108.33 178.036305,110.927 178.036305,113.63 L178.036305,129 L168.655305,129 Z M200.959189,115.432 C200.959189,107.482 206.524189,101.016 214.474189,101.016 C218.131189,101.016 221.152189,102.235 223.378189,104.408 L223.378189,101.811 L232.759189,101.811 L232.759189,129 L223.484189,129 L223.484189,125.926 L223.378189,125.926 C221.364189,128.152 218.184189,129.795 214.474189,129.795 C206.524189,129.795 200.959189,123.382 200.959189,115.432 Z M210.923189,115.432 C210.923189,119.142 213.467189,121.792 217.283189,121.792 C220.940189,121.792 223.590189,119.142 223.590189,115.432 C223.590189,111.669 220.781189,109.019 217.283189,109.019 C213.732189,109.019 210.923189,111.669 210.923189,115.432 Z M239.570073,101.811 L239.570073,91.688 L248.951073,91.688 L248.951073,101.811 L254.675073,101.811 L254.675073,108.966 L248.951073,108.966 L248.951073,117.605 C248.951073,120.149 249.587073,121.368 251.071073,121.368 C252.290073,121.368 253.403073,120.52 253.403073,120.52 L255.735073,128.099 C255.735073,128.099 252.714073,129.795 248.845073,129.795 C241.372073,129.795 239.570073,124.23 239.570073,119.407 L239.570073,108.966 L235.648073,108.966 L235.648073,101.811 L239.570073,101.811 Z M262.969957,85.01 C266.043957,85.01 268.534957,87.501 268.534957,90.575 C268.534957,93.649 266.043957,96.14 262.969957,96.14 C259.895957,96.14 257.404957,93.649 257.404957,90.575 C257.404957,87.501 259.895957,85.01 262.969957,85.01 Z M258.146957,101.811 L267.527957,101.811 L267.527957,129 L258.146957,129 L258.146957,101.811 Z M279.956841,101.811 L286.581841,116.598 L293.206841,101.811 L304.336841,101.811 L289.761841,129 L283.401841,129 L268.826841,101.811 L279.956841,101.811 Z M333.036725,116.704 L313.320725,116.704 C313.320725,120.891 316.818725,122.322 319.203725,122.322 C322.224725,122.322 323.549725,121.739 325.828725,119.301 L332.612725,122.693 C329.538725,127.834 324.556725,129.795 318.514725,129.795 C310.299725,129.795 303.568725,123.329 303.568725,115.432 C303.568725,107.482 310.299725,101.016 318.514725,101.016 C326.782725,101.016 333.089725,105.892 333.089725,115.432 C333.089725,115.803 333.089725,116.386 333.036725,116.704 Z M313.585725,111.51 L323.920725,111.51 C323.496725,108.648 321.535725,107.111 318.779725,107.111 C315.546725,107.111 313.744725,109.019 313.585725,111.51 Z M348.460493,115.432 C348.460493,107.482 354.025493,101.016 361.975493,101.016 C365.632493,101.016 368.653493,102.235 370.879493,104.408 L370.879493,83.42 L380.260493,83.42 L380.260493,129 L370.985493,129 L370.985493,125.926 L370.879493,125.926 C368.865493,128.152 365.685493,129.795 361.975493,129.795 C354.025493,129.795 348.460493,123.382 348.460493,115.432 Z M358.424493,115.432 C358.424493,119.142 360.968493,121.792 364.784493,121.792 C368.441493,121.792 371.091493,119.142 371.091493,115.432 C371.091493,111.669 368.282493,109.019 364.784493,109.019 C361.233493,109.019 358.424493,111.669 358.424493,115.432 Z M413.359377,116.704 L393.643377,116.704 C393.643377,120.891 397.141377,122.322 399.526377,122.322 C402.547377,122.322 403.872377,121.739 406.151377,119.301 L412.935377,122.693 C409.861377,127.834 404.879377,129.795 398.837377,129.795 C390.622377,129.795 383.891377,123.329 383.891377,115.432 C383.891377,107.482 390.622377,101.016 398.837377,101.016 C407.105377,101.016 413.412377,105.892 413.412377,115.432 C413.412377,115.803 413.412377,116.386 413.359377,116.704 Z M393.908377,111.51 L404.243377,111.51 C403.819377,108.648 401.858377,107.111 399.102377,107.111 C395.869377,107.111 394.067377,109.019 393.908377,111.51 Z M423.668262,101.811 L430.293262,116.598 L436.918262,101.811 L448.048262,101.811 L433.473262,129 L427.113262,129 L412.538262,101.811 L423.668262,101.811 Z M476.748146,116.704 L457.032146,116.704 C457.032146,120.891 460.530146,122.322 462.915146,122.322 C465.936146,122.322 467.261146,121.739 469.540146,119.301 L476.324146,122.693 C473.250146,127.834 468.268146,129.795 462.226146,129.795 C454.011146,129.795 447.280146,123.329 447.280146,115.432 C447.280146,107.482 454.011146,101.016 462.226146,101.016 C470.494146,101.016 476.801146,105.892 476.801146,115.432 C476.801146,115.803 476.801146,116.386 476.748146,116.704 Z M457.297146,111.51 L467.632146,111.51 C467.208146,108.648 465.247146,107.111 462.491146,107.111 C459.258146,107.111 457.456146,109.019 457.297146,111.51 Z M480.32603,129 L480.32603,83.42 L489.70703,83.42 L489.70703,129 L480.32603,129 Z M493.337914,115.432 C493.337914,106.952 500.545914,101.016 509.714914,101.016 C518.724914,101.016 525.932914,106.952 525.932914,115.432 C525.932914,123.806 519.095914,129.795 509.714914,129.795 C499.909914,129.795 493.337914,123.806 493.337914,115.432 Z M503.301914,115.432 C503.301914,119.142 505.845914,121.792 509.661914,121.792 C513.318914,121.792 515.968914,119.142 515.968914,115.432 C515.968914,111.669 513.159914,109.019 509.661914,109.019 C506.110914,109.019 503.301914,111.669 503.301914,115.432 Z M561.257798,115.379 C561.257798,123.329 555.692798,129.795 547.742798,129.795 C544.085798,129.795 541.064798,128.576 538.838798,126.403 L538.838798,142.78 L529.457798,142.78 L529.457798,101.811 L538.732798,101.811 L538.732798,104.885 L538.838798,104.885 C540.852798,102.659 544.032798,101.016 547.742798,101.016 C555.692798,101.016 561.257798,107.429 561.257798,115.379 Z M551.293798,115.379 C551.293798,111.669 548.749798,109.019 544.933798,109.019 C541.276798,109.019 538.626798,111.669 538.626798,115.379 C538.626798,119.142 541.435798,121.792 544.933798,121.792 C548.484798,121.792 551.293798,119.142 551.293798,115.379 Z M592.395682,116.704 L572.679682,116.704 C572.679682,120.891 576.177682,122.322 578.562682,122.322 C581.583682,122.322 582.908682,121.739 585.187682,119.301 L591.971682,122.693 C588.897682,127.834 583.915682,129.795 577.873682,129.795 C569.658682,129.795 562.927682,123.329 562.927682,115.432 C562.927682,107.482 569.658682,101.016 577.873682,101.016 C586.141682,101.016 592.448682,105.892 592.448682,115.432 C592.448682,115.803 592.448682,116.386 592.395682,116.704 Z M572.944682,111.51 L583.279682,111.51 C582.855682,108.648 580.894682,107.111 578.138682,107.111 C574.905682,107.111 573.103682,109.019 572.944682,111.51 Z M595.973566,129 L595.973566,101.811 L605.354566,101.811 L605.354566,105.733 L605.460566,105.733 C605.460566,105.733 608.428566,101.016 613.781566,101.016 C617.279566,101.016 619.717566,102.712 619.717566,102.712 L615.795566,110.662 C615.795566,110.662 614.046566,109.178 610.919566,109.178 C606.043566,109.178 605.354566,114.001 605.354566,114.69 L605.354566,129 L595.973566,129 Z M632.99445,101.016 C638.24145,101.016 642.11045,103.136 642.11045,103.136 L639.03645,109.284 C639.03645,109.284 635.85645,107.588 632.99445,107.588 C630.92745,107.588 630.07945,107.959 630.07945,109.231 C630.07945,110.662 631.98745,111.086 634.31945,111.828 C637.92345,112.941 642.58745,114.955 642.58745,120.52 C642.58745,128.523 635.27345,129.795 629.70845,129.795 C623.13645,129.795 619.21445,126.138 619.21445,126.138 L623.03045,119.725 C623.03045,119.725 626.74045,122.852 629.76145,122.852 C631.08645,122.852 632.67645,122.693 632.67645,120.891 C632.67645,118.93 629.70845,118.771 626.63445,117.181 C623.87845,115.75 621.12245,113.842 621.12245,109.761 C621.12245,104.196 625.83945,101.016 632.99445,101.016 Z M652.525334,117.658 C655.917334,117.658 658.620334,120.361 658.620334,123.753 C658.620334,127.092 655.917334,129.795 652.525334,129.795 C649.186334,129.795 646.483334,127.092 646.483334,123.753 C646.483334,120.361 649.186334,117.658 652.525334,117.658 Z" id="Building-open-source" fill="#4A4A4A"></path>
    </g>
</svg>