<?xml version="1.0" encoding="UTF-8"?>
<svg width="411px" height="306px" viewBox="0 0 411 306" version="1.1" xmlns="http://www.w3.org/2000/svg" xmlns:xlink="http://www.w3.org/1999/xlink">
    <!-- Generator: Sketch 51.3 (57544) - http://www.bohemiancoding.com/sketch -->
    <title>Building open source</title>
    <desc>Created with Sketch.</desc>
    <defs></defs>
    <g id="Page-1" stroke="none" stroke-width="1" fill="none" fill-rule="evenodd">
        <g id="Artboard-4" transform="translate(-20.000000, -20.000000)" fill="#4A4A4A">
            <path d="M21.961,21.855 L35.529,21.855 C43.055,21.855 48.991,24.664 48.991,32.985 C48.991,37.013 47.242,40.458 43.532,42.366 C48.991,43.32 52.86,46.341 52.86,53.39 C52.86,60.598 47.613,65.58 38.55,65.58 L21.961,65.58 L21.961,21.855 Z M31.925,38.974 L32.72,38.974 C37.013,38.974 39.345,37.649 39.345,33.992 C39.345,30.865 37.066,29.54 32.72,29.54 L31.925,29.54 L31.925,38.974 Z M31.925,57.895 L35.052,57.895 C39.769,57.895 42.366,56.464 42.366,53.019 C42.366,48.991 39.769,47.56 35.052,47.56 L31.925,47.56 L31.925,57.895 Z M65.3418841,38.391 L65.3418841,51.323 C65.3418841,56.676 66.7728841,58.743 70.6948841,58.743 C74.6168841,58.743 76.0478841,56.676 76.0478841,51.323 L76.0478841,38.391 L85.4288841,38.391 L85.4288841,53.602 C85.4288841,62.718 80.8708841,66.375 70.6948841,66.375 C60.5188841,66.375 55.9608841,62.718 55.9608841,53.602 L55.9608841,38.391 L65.3418841,38.391 Z M95.3137682,21.59 C98.3877682,21.59 100.878768,24.081 100.878768,27.155 C100.878768,30.229 98.3877682,32.72 95.3137682,32.72 C92.2397682,32.72 89.7487682,30.229 89.7487682,27.155 C89.7487682,24.081 92.2397682,21.59 95.3137682,21.59 Z M90.4907682,38.391 L99.8717682,38.391 L99.8717682,65.58 L90.4907682,65.58 L90.4907682,38.391 Z M105.728652,65.58 L105.728652,20 L115.109652,20 L115.109652,65.58 L105.728652,65.58 Z M118.740536,52.012 C118.740536,44.062 124.305536,37.596 132.255536,37.596 C135.912536,37.596 138.933536,38.815 141.159536,40.988 L141.159536,20 L150.540536,20 L150.540536,65.58 L141.265536,65.58 L141.265536,62.506 L141.159536,62.506 C139.145536,64.732 135.965536,66.375 132.255536,66.375 C124.305536,66.375 118.740536,59.962 118.740536,52.012 Z M128.704536,52.012 C128.704536,55.722 131.248536,58.372 135.064536,58.372 C138.721536,58.372 141.371536,55.722 141.371536,52.012 C141.371536,48.249 138.562536,45.599 135.064536,45.599 C131.513536,45.599 128.704536,48.249 128.704536,52.012 Z M160.95542,21.59 C164.02942,21.59 166.52042,24.081 166.52042,27.155 C166.52042,30.229 164.02942,32.72 160.95542,32.72 C157.88142,32.72 155.39042,30.229 155.39042,27.155 C155.39042,24.081 157.88142,21.59 160.95542,21.59 Z M156.13242,38.391 L165.51342,38.391 L165.51342,65.58 L156.13242,65.58 L156.13242,38.391 Z M171.370305,65.58 L171.370305,38.391 L180.751305,38.391 L180.751305,41.253 L180.857305,41.253 C182.977305,39.133 185.680305,37.596 188.648305,37.596 C193.630305,37.596 200.573305,40.087 200.573305,47.666 L200.573305,65.58 L191.192305,65.58 L191.192305,50.21 C191.192305,47.507 189.337305,44.91 186.316305,44.91 C183.507305,44.91 180.751305,47.507 180.751305,50.21 L180.751305,65.58 L171.370305,65.58 Z M204.416189,72.258 L212.101189,68.495 C213.108189,70.138 215.387189,71.993 219.468189,71.993 C222.065189,71.993 226.093189,70.456 226.093189,65.633 L226.093189,63.619 C224.079189,65.845 220.899189,66.375 217.189189,66.375 C209.239189,66.375 203.674189,59.962 203.674189,52.012 C203.674189,44.062 209.239189,37.596 217.189189,37.596 C220.793189,37.596 223.708189,38.762 225.934189,40.829 L226.093189,40.829 L226.093189,38.391 L235.474189,38.391 L235.474189,66.322 C235.474189,75.438 228.743189,80.155 219.468189,80.155 C213.797189,80.155 207.278189,78.883 204.416189,72.258 Z M213.638189,52.012 C213.638189,55.722 216.182189,58.372 219.998189,58.372 C223.655189,58.372 226.305189,55.722 226.305189,52.012 C226.305189,48.249 223.496189,45.599 219.998189,45.599 C216.447189,45.599 213.638189,48.249 213.638189,52.012 Z M252.805957,52.012 C252.805957,43.532 260.013957,37.596 269.182957,37.596 C278.192957,37.596 285.400957,43.532 285.400957,52.012 C285.400957,60.386 278.563957,66.375 269.182957,66.375 C259.377957,66.375 252.805957,60.386 252.805957,52.012 Z M262.769957,52.012 C262.769957,55.722 265.313957,58.372 269.129957,58.372 C272.786957,58.372 275.436957,55.722 275.436957,52.012 C275.436957,48.249 272.627957,45.599 269.129957,45.599 C265.578957,45.599 262.769957,48.249 262.769957,52.012 Z M320.725841,51.959 C320.725841,59.909 315.160841,66.375 307.210841,66.375 C303.553841,66.375 300.532841,65.156 298.306841,62.983 L298.306841,79.36 L288.925841,79.36 L288.925841,38.391 L298.200841,38.391 L298.200841,41.465 L298.306841,41.465 C300.320841,39.239 303.500841,37.596 307.210841,37.596 C315.160841,37.596 320.725841,44.009 320.725841,51.959 Z M310.761841,51.959 C310.761841,48.249 308.217841,45.599 304.401841,45.599 C300.744841,45.599 298.094841,48.249 298.094841,51.959 C298.094841,55.722 300.903841,58.372 304.401841,58.372 C307.952841,58.372 310.761841,55.722 310.761841,51.959 Z M351.863725,53.284 L332.147725,53.284 C332.147725,57.471 335.645725,58.902 338.030725,58.902 C341.051725,58.902 342.376725,58.319 344.655725,55.881 L351.439725,59.273 C348.365725,64.414 343.383725,66.375 337.341725,66.375 C329.126725,66.375 322.395725,59.909 322.395725,52.012 C322.395725,44.062 329.126725,37.596 337.341725,37.596 C345.609725,37.596 351.916725,42.472 351.916725,52.012 C351.916725,52.383 351.916725,52.966 351.863725,53.284 Z M332.412725,48.09 L342.747725,48.09 C342.323725,45.228 340.362725,43.691 337.606725,43.691 C334.373725,43.691 332.571725,45.599 332.412725,48.09 Z M355.441609,65.58 L355.441609,38.391 L364.822609,38.391 L364.822609,41.253 L364.928609,41.253 C367.048609,39.133 369.751609,37.596 372.719609,37.596 C377.701609,37.596 384.644609,40.087 384.644609,47.666 L384.644609,65.58 L375.263609,65.58 L375.263609,50.21 C375.263609,47.507 373.408609,44.91 370.387609,44.91 C367.578609,44.91 364.822609,47.507 364.822609,50.21 L364.822609,65.58 L355.441609,65.58 Z M33.78,119.596 C39.027,119.596 42.896,121.716 42.896,121.716 L39.822,127.864 C39.822,127.864 36.642,126.168 33.78,126.168 C31.713,126.168 30.865,126.539 30.865,127.811 C30.865,129.242 32.773,129.666 35.105,130.408 C38.709,131.521 43.373,133.535 43.373,139.1 C43.373,147.103 36.059,148.375 30.494,148.375 C23.922,148.375 20,144.718 20,144.718 L23.816,138.305 C23.816,138.305 27.526,141.432 30.547,141.432 C31.872,141.432 33.462,141.273 33.462,139.471 C33.462,137.51 30.494,137.351 27.42,135.761 C24.664,134.33 21.908,132.422 21.908,128.341 C21.908,122.776 26.625,119.596 33.78,119.596 Z M45.3078841,134.012 C45.3078841,125.532 52.5158841,119.596 61.6848841,119.596 C70.6948841,119.596 77.9028841,125.532 77.9028841,134.012 C77.9028841,142.386 71.0658841,148.375 61.6848841,148.375 C51.8798841,148.375 45.3078841,142.386 45.3078841,134.012 Z M55.2718841,134.012 C55.2718841,137.722 57.8158841,140.372 61.6318841,140.372 C65.2888841,140.372 67.9388841,137.722 67.9388841,134.012 C67.9388841,130.249 65.1298841,127.599 61.6318841,127.599 C58.0808841,127.599 55.2718841,130.249 55.2718841,134.012 Z M90.3847682,120.391 L90.3847682,133.323 C90.3847682,138.676 91.8157682,140.743 95.7377682,140.743 C99.6597682,140.743 101.090768,138.676 101.090768,133.323 L101.090768,120.391 L110.471768,120.391 L110.471768,135.602 C110.471768,144.718 105.913768,148.375 95.7377682,148.375 C85.5617682,148.375 81.0037682,144.718 81.0037682,135.602 L81.0037682,120.391 L90.3847682,120.391 Z M115.533652,147.58 L115.533652,120.391 L124.914652,120.391 L124.914652,124.313 L125.020652,124.313 C125.020652,124.313 127.988652,119.596 133.341652,119.596 C136.839652,119.596 139.277652,121.292 139.277652,121.292 L135.355652,129.242 C135.355652,129.242 133.606652,127.758 130.479652,127.758 C125.603652,127.758 124.914652,132.581 124.914652,133.27 L124.914652,147.58 L115.533652,147.58 Z M155.310536,127.281 C151.759536,127.281 148.844536,130.249 148.844536,133.959 C148.844536,137.722 151.759536,140.69 155.310536,140.69 C158.119536,140.69 159.868536,139.418 159.868536,139.418 L163.048536,145.937 C163.048536,145.937 159.974536,148.375 153.932536,148.375 C146.088536,148.375 138.880536,142.015 138.880536,134.065 C138.880536,126.062 146.035536,119.596 153.932536,119.596 C159.974536,119.596 163.048536,122.14 163.048536,122.14 L159.868536,128.553 C159.868536,128.553 158.119536,127.281 155.310536,127.281 Z M193.60342,135.284 L173.88742,135.284 C173.88742,139.471 177.38542,140.902 179.77042,140.902 C182.79142,140.902 184.11642,140.319 186.39542,137.881 L193.17942,141.273 C190.10542,146.414 185.12342,148.375 179.08142,148.375 C170.86642,148.375 164.13542,141.909 164.13542,134.012 C164.13542,126.062 170.86642,119.596 179.08142,119.596 C187.34942,119.596 193.65642,124.472 193.65642,134.012 C193.65642,134.383 193.65642,134.966 193.60342,135.284 Z M174.15242,130.09 L184.48742,130.09 C184.06342,127.228 182.10242,125.691 179.34642,125.691 C176.11342,125.691 174.31142,127.599 174.15242,130.09 Z M212.578189,120.391 L212.578189,110.268 L221.959189,110.268 L221.959189,120.391 L227.683189,120.391 L227.683189,127.546 L221.959189,127.546 L221.959189,136.185 C221.959189,138.729 222.595189,139.948 224.079189,139.948 C225.298189,139.948 226.411189,139.1 226.411189,139.1 L228.743189,146.679 C228.743189,146.679 225.722189,148.375 221.853189,148.375 C214.380189,148.375 212.578189,142.81 212.578189,137.987 L212.578189,127.546 L208.656189,127.546 L208.656189,120.391 L212.578189,120.391 Z M229.194073,134.012 C229.194073,125.532 236.402073,119.596 245.571073,119.596 C254.581073,119.596 261.789073,125.532 261.789073,134.012 C261.789073,142.386 254.952073,148.375 245.571073,148.375 C235.766073,148.375 229.194073,142.386 229.194073,134.012 Z M239.158073,134.012 C239.158073,137.722 241.702073,140.372 245.518073,140.372 C249.175073,140.372 251.825073,137.722 251.825073,134.012 C251.825073,130.249 249.016073,127.599 245.518073,127.599 C241.967073,127.599 239.158073,130.249 239.158073,134.012 Z M263.458957,134.012 C263.458957,125.532 270.666957,119.596 279.835957,119.596 C288.845957,119.596 296.053957,125.532 296.053957,134.012 C296.053957,142.386 289.216957,148.375 279.835957,148.375 C270.030957,148.375 263.458957,142.386 263.458957,134.012 Z M273.422957,134.012 C273.422957,137.722 275.966957,140.372 279.782957,140.372 C283.439957,140.372 286.089957,137.722 286.089957,134.012 C286.089957,130.249 283.280957,127.599 279.782957,127.599 C276.231957,127.599 273.422957,130.249 273.422957,134.012 Z M299.578841,147.58 L299.578841,102 L308.959841,102 L308.959841,147.58 L299.578841,147.58 Z M326.370725,119.596 C331.617725,119.596 335.486725,121.716 335.486725,121.716 L332.412725,127.864 C332.412725,127.864 329.232725,126.168 326.370725,126.168 C324.303725,126.168 323.455725,126.539 323.455725,127.811 C323.455725,129.242 325.363725,129.666 327.695725,130.408 C331.299725,131.521 335.963725,133.535 335.963725,139.1 C335.963725,147.103 328.649725,148.375 323.084725,148.375 C316.512725,148.375 312.590725,144.718 312.590725,144.718 L316.406725,138.305 C316.406725,138.305 320.116725,141.432 323.137725,141.432 C324.462725,141.432 326.052725,141.273 326.052725,139.471 C326.052725,137.51 323.084725,137.351 320.010725,135.761 C317.254725,134.33 314.498725,132.422 314.498725,128.341 C314.498725,122.776 319.215725,119.596 326.370725,119.596 Z M355.150493,120.391 L355.150493,114.614 C355.203493,106.664 359.019493,101.205 365.803493,101.205 C370.573493,101.205 373.541493,103.643 373.541493,103.643 L370.255493,110.268 C370.255493,110.268 368.983493,109.526 367.446493,109.526 C365.061493,109.526 364.531493,111.116 364.531493,114.879 L364.531493,120.391 L370.785493,120.391 L370.785493,127.546 L364.531493,127.546 L364.531493,147.58 L355.150493,147.58 L355.150493,127.546 L351.228493,127.546 L351.228493,120.391 L355.150493,120.391 Z M370.706377,134.012 C370.706377,125.532 377.914377,119.596 387.083377,119.596 C396.093377,119.596 403.301377,125.532 403.301377,134.012 C403.301377,142.386 396.464377,148.375 387.083377,148.375 C377.278377,148.375 370.706377,142.386 370.706377,134.012 Z M380.670377,134.012 C380.670377,137.722 383.214377,140.372 387.030377,140.372 C390.687377,140.372 393.337377,137.722 393.337377,134.012 C393.337377,130.249 390.528377,127.599 387.030377,127.599 C383.479377,127.599 380.670377,130.249 380.670377,134.012 Z M406.826261,147.58 L406.826261,120.391 L416.207262,120.391 L416.207262,124.313 L416.313262,124.313 C416.313262,124.313 419.281262,119.596 424.634262,119.596 C428.132262,119.596 430.570262,121.292 430.570262,121.292 L426.648261,129.242 C426.648261,129.242 424.899262,127.758 421.772262,127.758 C416.896262,127.758 416.207262,132.581 416.207262,133.27 L416.207262,147.58 L406.826261,147.58 Z M36.43,209.281 C32.879,209.281 29.964,212.249 29.964,215.959 C29.964,219.722 32.879,222.69 36.43,222.69 C39.239,222.69 40.988,221.418 40.988,221.418 L44.168,227.937 C44.168,227.937 41.094,230.375 35.052,230.375 C27.208,230.375 20,224.015 20,216.065 C20,208.062 27.155,201.596 35.052,201.596 C41.094,201.596 44.168,204.14 44.168,204.14 L40.988,210.553 C40.988,210.553 39.239,209.281 36.43,209.281 Z M47.1098841,229.58 L47.1098841,184 L56.4908841,184 L56.4908841,229.58 L47.1098841,229.58 Z M60.1217682,216.012 C60.1217682,207.532 67.3297682,201.596 76.4987682,201.596 C85.5087682,201.596 92.7167682,207.532 92.7167682,216.012 C92.7167682,224.386 85.8797682,230.375 76.4987682,230.375 C66.6937682,230.375 60.1217682,224.386 60.1217682,216.012 Z M70.0857682,216.012 C70.0857682,219.722 72.6297682,222.372 76.4457682,222.372 C80.1027682,222.372 82.7527682,219.722 82.7527682,216.012 C82.7527682,212.249 79.9437682,209.599 76.4457682,209.599 C72.8947682,209.599 70.0857682,212.249 70.0857682,216.012 Z M105.198652,202.391 L105.198652,215.323 C105.198652,220.676 106.629652,222.743 110.551652,222.743 C114.473652,222.743 115.904652,220.676 115.904652,215.323 L115.904652,202.391 L125.285652,202.391 L125.285652,217.602 C125.285652,226.718 120.727652,230.375 110.551652,230.375 C100.375652,230.375 95.8176523,226.718 95.8176523,217.602 L95.8176523,202.391 L105.198652,202.391 Z M128.386536,216.012 C128.386536,208.062 133.951536,201.596 141.901536,201.596 C145.558536,201.596 148.579536,202.815 150.805536,204.988 L150.805536,184 L160.186536,184 L160.186536,229.58 L150.911536,229.58 L150.911536,226.506 L150.805536,226.506 C148.791536,228.732 145.611536,230.375 141.901536,230.375 C133.951536,230.375 128.386536,223.962 128.386536,216.012 Z M138.350536,216.012 C138.350536,219.722 140.894536,222.372 144.710536,222.372 C148.367536,222.372 151.017536,219.722 151.017536,216.012 C151.017536,212.249 148.208536,209.599 144.710536,209.599 C141.159536,209.599 138.350536,212.249 138.350536,216.012 Z M165.77842,210.182 L182.84442,210.182 L182.84442,218.291 L165.77842,218.291 L165.77842,210.182 Z M188.436305,229.58 L188.436305,202.391 L197.817305,202.391 L197.817305,205.253 L197.923305,205.253 C200.043305,203.133 202.746305,201.596 205.714305,201.596 C210.696305,201.596 217.639305,204.087 217.639305,211.666 L217.639305,229.58 L208.258305,229.58 L208.258305,214.21 C208.258305,211.507 206.403305,208.91 203.382305,208.91 C200.573305,208.91 197.817305,211.507 197.817305,214.21 L197.817305,229.58 L188.436305,229.58 Z M220.740189,216.012 C220.740189,208.062 226.305189,201.596 234.255189,201.596 C237.912189,201.596 240.933189,202.815 243.159189,204.988 L243.159189,202.391 L252.540189,202.391 L252.540189,229.58 L243.265189,229.58 L243.265189,226.506 L243.159189,226.506 C241.145189,228.732 237.965189,230.375 234.255189,230.375 C226.305189,230.375 220.740189,223.962 220.740189,216.012 Z M230.704189,216.012 C230.704189,219.722 233.248189,222.372 237.064189,222.372 C240.721189,222.372 243.371189,219.722 243.371189,216.012 C243.371189,212.249 240.562189,209.599 237.064189,209.599 C233.513189,209.599 230.704189,212.249 230.704189,216.012 Z M259.351073,202.391 L259.351073,192.268 L268.732073,192.268 L268.732073,202.391 L274.456073,202.391 L274.456073,209.546 L268.732073,209.546 L268.732073,218.185 C268.732073,220.729 269.368073,221.948 270.852073,221.948 C272.071073,221.948 273.184073,221.1 273.184073,221.1 L275.516073,228.679 C275.516073,228.679 272.495073,230.375 268.626073,230.375 C261.153073,230.375 259.351073,224.81 259.351073,219.987 L259.351073,209.546 L255.429073,209.546 L255.429073,202.391 L259.351073,202.391 Z M282.750957,185.59 C285.824957,185.59 288.315957,188.081 288.315957,191.155 C288.315957,194.229 285.824957,196.72 282.750957,196.72 C279.676957,196.72 277.185957,194.229 277.185957,191.155 C277.185957,188.081 279.676957,185.59 282.750957,185.59 Z M277.927957,202.391 L287.308957,202.391 L287.308957,229.58 L277.927957,229.58 L277.927957,202.391 Z M299.737841,202.391 L306.362841,217.178 L312.987841,202.391 L324.117841,202.391 L309.542841,229.58 L303.182841,229.58 L288.607841,202.391 L299.737841,202.391 Z M352.817725,217.284 L333.101725,217.284 C333.101725,221.471 336.599725,222.902 338.984725,222.902 C342.005725,222.902 343.330725,222.319 345.609725,219.881 L352.393725,223.273 C349.319725,228.414 344.337725,230.375 338.295725,230.375 C330.080725,230.375 323.349725,223.909 323.349725,216.012 C323.349725,208.062 330.080725,201.596 338.295725,201.596 C346.563725,201.596 352.870725,206.472 352.870725,216.012 C352.870725,216.383 352.870725,216.966 352.817725,217.284 Z M333.366725,212.09 L343.701725,212.09 C343.277725,209.228 341.316725,207.691 338.560725,207.691 C335.327725,207.691 333.525725,209.599 333.366725,212.09 Z M20,298.012 C20,290.062 25.565,283.596 33.515,283.596 C37.172,283.596 40.193,284.815 42.419,286.988 L42.419,266 L51.8,266 L51.8,311.58 L42.525,311.58 L42.525,308.506 L42.419,308.506 C40.405,310.732 37.225,312.375 33.515,312.375 C25.565,312.375 20,305.962 20,298.012 Z M29.964,298.012 C29.964,301.722 32.508,304.372 36.324,304.372 C39.981,304.372 42.631,301.722 42.631,298.012 C42.631,294.249 39.822,291.599 36.324,291.599 C32.773,291.599 29.964,294.249 29.964,298.012 Z M84.8988841,299.284 L65.1828841,299.284 C65.1828841,303.471 68.6808841,304.902 71.0658841,304.902 C74.0868841,304.902 75.4118841,304.319 77.6908841,301.881 L84.4748841,305.273 C81.4008841,310.414 76.4188841,312.375 70.3768841,312.375 C62.1618841,312.375 55.4308841,305.909 55.4308841,298.012 C55.4308841,290.062 62.1618841,283.596 70.3768841,283.596 C78.6448841,283.596 84.9518841,288.472 84.9518841,298.012 C84.9518841,298.383 84.9518841,298.966 84.8988841,299.284 Z M65.4478841,294.09 L75.7828841,294.09 C75.3588841,291.228 73.3978841,289.691 70.6418841,289.691 C67.4088841,289.691 65.6068841,291.599 65.4478841,294.09 Z M95.2077682,284.391 L101.832768,299.178 L108.457768,284.391 L119.587768,284.391 L105.012768,311.58 L98.6527682,311.58 L84.0777682,284.391 L95.2077682,284.391 Z M148.287652,299.284 L128.571652,299.284 C128.571652,303.471 132.069652,304.902 134.454652,304.902 C137.475652,304.902 138.800652,304.319 141.079652,301.881 L147.863652,305.273 C144.789652,310.414 139.807652,312.375 133.765652,312.375 C125.550652,312.375 118.819652,305.909 118.819652,298.012 C118.819652,290.062 125.550652,283.596 133.765652,283.596 C142.033652,283.596 148.340652,288.472 148.340652,298.012 C148.340652,298.383 148.340652,298.966 148.287652,299.284 Z M128.836652,294.09 L139.171652,294.09 C138.747652,291.228 136.786652,289.691 134.030652,289.691 C130.797652,289.691 128.995652,291.599 128.836652,294.09 Z M151.865536,311.58 L151.865536,266 L161.246536,266 L161.246536,311.58 L151.865536,311.58 Z M164.87742,298.012 C164.87742,289.532 172.08542,283.596 181.25442,283.596 C190.26442,283.596 197.47242,289.532 197.47242,298.012 C197.47242,306.386 190.63542,312.375 181.25442,312.375 C171.44942,312.375 164.87742,306.386 164.87742,298.012 Z M174.84142,298.012 C174.84142,301.722 177.38542,304.372 181.20142,304.372 C184.85842,304.372 187.50842,301.722 187.50842,298.012 C187.50842,294.249 184.69942,291.599 181.20142,291.599 C177.65042,291.599 174.84142,294.249 174.84142,298.012 Z M232.797305,297.959 C232.797305,305.909 227.232305,312.375 219.282305,312.375 C215.625305,312.375 212.604305,311.156 210.378305,308.983 L210.378305,325.36 L200.997305,325.36 L200.997305,284.391 L210.272305,284.391 L210.272305,287.465 L210.378305,287.465 C212.392305,285.239 215.572305,283.596 219.282305,283.596 C227.232305,283.596 232.797305,290.009 232.797305,297.959 Z M222.833305,297.959 C222.833305,294.249 220.289305,291.599 216.473305,291.599 C212.816305,291.599 210.166305,294.249 210.166305,297.959 C210.166305,301.722 212.975305,304.372 216.473305,304.372 C220.024305,304.372 222.833305,301.722 222.833305,297.959 Z M263.935189,299.284 L244.219189,299.284 C244.219189,303.471 247.717189,304.902 250.102189,304.902 C253.123189,304.902 254.448189,304.319 256.727189,301.881 L263.511189,305.273 C260.437189,310.414 255.455189,312.375 249.413189,312.375 C241.198189,312.375 234.467189,305.909 234.467189,298.012 C234.467189,290.062 241.198189,283.596 249.413189,283.596 C257.681189,283.596 263.988189,288.472 263.988189,298.012 C263.988189,298.383 263.988189,298.966 263.935189,299.284 Z M244.484189,294.09 L254.819189,294.09 C254.395189,291.228 252.434189,289.691 249.678189,289.691 C246.445189,289.691 244.643189,291.599 244.484189,294.09 Z M267.513073,311.58 L267.513073,284.391 L276.894073,284.391 L276.894073,288.313 L277.000073,288.313 C277.000073,288.313 279.968073,283.596 285.321073,283.596 C288.819073,283.596 291.257073,285.292 291.257073,285.292 L287.335073,293.242 C287.335073,293.242 285.586073,291.758 282.459073,291.758 C277.583073,291.758 276.894073,296.581 276.894073,297.27 L276.894073,311.58 L267.513073,311.58 Z M304.533957,283.596 C309.780957,283.596 313.649957,285.716 313.649957,285.716 L310.575957,291.864 C310.575957,291.864 307.395957,290.168 304.533957,290.168 C302.466957,290.168 301.618957,290.539 301.618957,291.811 C301.618957,293.242 303.526957,293.666 305.858957,294.408 C309.462957,295.521 314.126957,297.535 314.126957,303.1 C314.126957,311.103 306.812957,312.375 301.247957,312.375 C294.675957,312.375 290.753957,308.718 290.753957,308.718 L294.569957,302.305 C294.569957,302.305 298.279957,305.432 301.300957,305.432 C302.625957,305.432 304.215957,305.273 304.215957,303.471 C304.215957,301.51 301.247957,301.351 298.173957,299.761 C295.417957,298.33 292.661957,296.422 292.661957,292.341 C292.661957,286.776 297.378957,283.596 304.533957,283.596 Z M324.064841,300.238 C327.456841,300.238 330.159841,302.941 330.159841,306.333 C330.159841,309.672 327.456841,312.375 324.064841,312.375 C320.725841,312.375 318.022841,309.672 318.022841,306.333 C318.022841,302.941 320.725841,300.238 324.064841,300.238 Z" id="Building-open-source"></path>
        </g>
    </g>
</svg>